{"title":"Trey Songz - Cant Be Friends [KingPinVideos]","uid":5839320,"size":83306036,"categoryP":"video","categoryS":"music_videos","magnet":"?xt=urn:btih:901124d578ad9ecde546e17da7e4d993a67fd2f8&amp;dn=Trey+Songz+-+Cant+Be+Friends+%5BKingPinVideos%5D&amp;tr=udp%3A%2F%2Ftracker.openbittorrent.com%3A80&amp;tr=udp%3A%2F%2Fopen.demonii.com%3A1337&amp;tr=udp%3A%2F%2Ftracker.coppersurfer.tk%3A6969&amp;tr=udp%3A%2F%2Fexodus.desync.com%3A6969","seeders":1,"leechers":0,"uploader":"KingPinMan","files":5,"time":1284864323,"description":"&lt;img src=&quot;http://img16.imageshack.us/img16/5553/treysongzcantbefreinds.png&quot;&gt;\n\n\n[img]http://img62.imageshack.us/img62/9532/treysongzcantbefreinds2.png[/img]\n\n[code]General\nComplete name                    : Trey Songz - Cant Be Friends[KingPinVideos].mpg\nFormat                           : MPEG-PS\nFile size                        : 79.4 MiB\nDuration                         : 3mn 53s\nOverall bit rate                 : 2 856 Kbps\nWriting library                  : encoded by TMPGEnc 4.0 XPress Version. 4.7.4.299\n\nVideo\nID                               : 224 (0xE0)\nFormat                           : MPEG Video\nFormat version                   : Version 1\nFormat settings, BVOP            : Yes\nFormat settings, Matrix          : Default\nDuration                         : 3mn 53s\nBit rate mode                    : Constant\nBit rate                         : 2 615 Kbps\nNominal bit rate                 : 2 700 Kbps\nWidth                            : 384 pixels\nHeight                           : 208 pixels\nDisplay aspect ratio             : 16:9\nFrame rate                       : 29.970 fps\nResolution                       : 8 bits\nScan type                        : Progressive\nBits/(Pixel*Frame)               : 1.092\nStream size                      : 72.7 MiB (92%)\nWriting library                  : TMPGEnc XPress 4.7.4.299\n\nAudio\nID                               : 192 (0xC0)\nFormat                           : MPEG Audio\nFormat version                   : Version 1\nFormat profile                   : Layer 2\nDuration                         : 3mn 53s\nBit rate mode                    : Constant\nBit rate                         : 128 Kbps\nChannel(s)                       : 2 channels\nSampling rate                    : 48.0 KHz\nStream size                      : 3.56 MiB (4%)[/code]","torrent":{"xt":"urn:btih:901124d578ad9ecde546e17da7e4d993a67fd2f8","amp;dn":"Trey+Songz+-+Cant+Be+Friends+%5BKingPinVideos%5D","amp;tr":["udp%3A%2F%2Ftracker.openbittorrent.com%3A80","udp%3A%2F%2Fopen.demonii.com%3A1337","udp%3A%2F%2Ftracker.coppersurfer.tk%3A6969","udp%3A%2F%2Fexodus.desync.com%3A6969"],"infoHash":"901124d578ad9ecde546e17da7e4d993a67fd2f8","infoHashBuffer":{"type":"Buffer","data":[144,17,36,213,120,173,158,205,229,70,225,125,167,228,217,147,166,127,210,248]},"announce":[],"urlList":[]}}